<svg width="732" height="650" viewBox="0 0 732 650" fill="none" xmlns="http://www.w3.org/2000/svg">
<path d="M729 445.894L675.151 101.096L474.367 134.042L226.83 174.66L172.147 183.633L188.844 262.642L228.5 519.362L546.165 472.733L581.856 467.494L617.546 462.255L729 445.894Z" fill="#FFDA73" fill-opacity="0.7"/>
<path d="M1 211.716L172.147 183.633M188.844 262.642L228.5 519.362L546.165 472.733M188.844 262.642L51.9266 285.462M188.844 262.642L172.147 183.633M1 293.95L51.9266 285.462M51.9266 285.462L69.0413 398.307L200.95 561.94L220.151 569.396M527.381 647.096L444.312 639.165L429.284 636.334M527.381 647.096H624.642L620.011 526.459L617.546 462.255M527.381 647.096L522.372 506.022M617.546 462.255L729 445.894L675.151 101.096L474.367 134.042M617.546 462.255L581.856 467.494L546.165 472.733M172.147 183.633L154.197 78.1376L226.83 66.8182M172.147 183.633L226.83 174.66M651.775 101.096L636.33 3L458.505 30.7131M226.83 174.66L221.821 147.849L238.101 145.08M226.83 174.66L474.367 134.042M413.005 37.804L425.528 113.202L371.679 122.361M413.005 37.804L359.156 46.196M413.005 37.804L458.505 30.7131M359.156 46.196L371.679 122.361M359.156 46.196L314.491 53.1568M371.679 122.361L327.849 129.815M327.849 129.815L314.491 53.1568M327.849 129.815L280.679 137.838M314.491 53.1568L268.991 60.2477M268.991 60.2477L280.679 137.838M268.991 60.2477L226.83 66.8182M280.679 137.838L238.101 145.08M238.101 145.08L226.83 66.8182M458.505 30.7131L469.358 101.096L474.367 134.042M220.151 569.396L228.5 549.417L316.161 536.473M220.151 569.396L291.95 597.275M546.165 472.733L550.757 501.83L522.372 506.022M522.372 506.022L419.683 521.186M419.683 521.186L429.284 584.899V636.334M419.683 521.186L316.161 536.473M429.284 636.334L357.904 622.885L291.95 597.275M316.161 536.473L291.95 597.275" stroke="#FFDA73" stroke-opacity="0.7" stroke-width="5"/>
<path d="M254.08 278.6C250.88 278.6 247.9 278.08 245.14 277.04C242.42 275.96 240.04 274.46 238 272.54C236 270.58 234.44 268.28 233.32 265.64C232.2 263 231.64 260.12 231.64 257C231.64 253.88 232.2 251 233.32 248.36C234.44 245.72 236.02 243.44 238.06 241.52C240.1 239.56 242.48 238.06 245.2 237.02C247.92 235.94 250.9 235.4 254.14 235.4C257.58 235.4 260.72 236 263.56 237.2C266.4 238.36 268.8 240.1 270.76 242.42L265.72 247.16C264.2 245.52 262.5 244.3 260.62 243.5C258.74 242.66 256.7 242.24 254.5 242.24C252.3 242.24 250.28 242.6 248.44 243.32C246.64 244.04 245.06 245.06 243.7 246.38C242.38 247.7 241.34 249.26 240.58 251.06C239.86 252.86 239.5 254.84 239.5 257C239.5 259.16 239.86 261.14 240.58 262.94C241.34 264.74 242.38 266.3 243.7 267.62C245.06 268.94 246.64 269.96 248.44 270.68C250.28 271.4 252.3 271.76 254.5 271.76C256.7 271.76 258.74 271.36 260.62 270.56C262.5 269.72 264.2 268.46 265.72 266.78L270.76 271.58C268.8 273.86 266.4 275.6 263.56 276.8C260.72 278 257.56 278.6 254.08 278.6ZM277.514 278V245.96H285.014V278H277.514ZM281.294 240.68C279.894 240.68 278.734 240.24 277.814 239.36C276.934 238.48 276.494 237.42 276.494 236.18C276.494 234.9 276.934 233.84 277.814 233C278.734 232.12 279.894 231.68 281.294 231.68C282.694 231.68 283.834 232.1 284.714 232.94C285.634 233.74 286.094 234.76 286.094 236C286.094 237.32 285.654 238.44 284.774 239.36C283.894 240.24 282.734 240.68 281.294 240.68ZM313.038 245.6C315.598 245.6 317.878 246.1 319.878 247.1C321.918 248.1 323.518 249.64 324.678 251.72C325.838 253.76 326.418 256.4 326.418 259.64V278H318.918V260.6C318.918 257.76 318.238 255.64 316.878 254.24C315.558 252.84 313.698 252.14 311.298 252.14C309.538 252.14 307.978 252.5 306.618 253.22C305.258 253.94 304.198 255.02 303.438 256.46C302.718 257.86 302.358 259.64 302.358 261.8V278H294.858V245.96H301.998V254.6L300.738 251.96C301.858 249.92 303.478 248.36 305.598 247.28C307.758 246.16 310.238 245.6 313.038 245.6ZM351.05 278.42C347.49 278.42 344.37 277.72 341.69 276.32C339.05 274.88 336.99 272.92 335.51 270.44C334.07 267.96 333.35 265.14 333.35 261.98C333.35 258.78 334.05 255.96 335.45 253.52C336.89 251.04 338.85 249.1 341.33 247.7C343.85 246.3 346.71 245.6 349.91 245.6C353.03 245.6 355.81 246.28 358.25 247.64C360.69 249 362.61 250.92 364.01 253.4C365.41 255.88 366.11 258.8 366.11 262.16C366.11 262.48 366.09 262.84 366.05 263.24C366.05 263.64 366.03 264.02 365.99 264.38H339.29V259.4H362.03L359.09 260.96C359.13 259.12 358.75 257.5 357.95 256.1C357.15 254.7 356.05 253.6 354.65 252.8C353.29 252 351.71 251.6 349.91 251.6C348.07 251.6 346.45 252 345.05 252.8C343.69 253.6 342.61 254.72 341.81 256.16C341.05 257.56 340.67 259.22 340.67 261.14V262.34C340.67 264.26 341.11 265.96 341.99 267.44C342.87 268.92 344.11 270.06 345.71 270.86C347.31 271.66 349.15 272.06 351.23 272.06C353.03 272.06 354.65 271.78 356.09 271.22C357.53 270.66 358.81 269.78 359.93 268.58L363.95 273.2C362.51 274.88 360.69 276.18 358.49 277.1C356.33 277.98 353.85 278.42 351.05 278.42ZM413.755 245.6C416.315 245.6 418.575 246.1 420.535 247.1C422.535 248.1 424.095 249.64 425.215 251.72C426.335 253.76 426.895 256.4 426.895 259.64V278H419.395V260.6C419.395 257.76 418.775 255.64 417.535 254.24C416.295 252.84 414.515 252.14 412.195 252.14C410.555 252.14 409.095 252.5 407.815 253.22C406.575 253.94 405.595 255 404.875 256.4C404.195 257.8 403.855 259.58 403.855 261.74V278H396.355V260.6C396.355 257.76 395.735 255.64 394.495 254.24C393.255 252.84 391.475 252.14 389.155 252.14C387.515 252.14 386.055 252.5 384.775 253.22C383.535 253.94 382.555 255 381.835 256.4C381.155 257.8 380.815 259.58 380.815 261.74V278H373.315V245.96H380.455V254.48L379.195 251.96C380.275 249.88 381.835 248.3 383.875 247.22C385.955 246.14 388.315 245.6 390.955 245.6C393.955 245.6 396.555 246.34 398.755 247.82C400.995 249.3 402.475 251.54 403.195 254.54L400.255 253.52C401.295 251.12 403.015 249.2 405.415 247.76C407.815 246.32 410.595 245.6 413.755 245.6ZM456.219 278V271.52L455.799 270.14V258.8C455.799 256.6 455.139 254.9 453.819 253.7C452.499 252.46 450.499 251.84 447.819 251.84C446.019 251.84 444.239 252.12 442.479 252.68C440.759 253.24 439.299 254.02 438.099 255.02L435.159 249.56C436.879 248.24 438.919 247.26 441.279 246.62C443.679 245.94 446.159 245.6 448.719 245.6C453.359 245.6 456.939 246.72 459.459 248.96C462.019 251.16 463.299 254.58 463.299 259.22V278H456.219ZM446.139 278.42C443.739 278.42 441.639 278.02 439.839 277.22C438.039 276.38 436.639 275.24 435.639 273.8C434.679 272.32 434.199 270.66 434.199 268.82C434.199 267.02 434.619 265.4 435.459 263.96C436.339 262.52 437.759 261.38 439.719 260.54C441.679 259.7 444.279 259.28 447.519 259.28H456.819V264.26H448.059C445.499 264.26 443.779 264.68 442.899 265.52C442.019 266.32 441.579 267.32 441.579 268.52C441.579 269.88 442.119 270.96 443.199 271.76C444.279 272.56 445.779 272.96 447.699 272.96C449.539 272.96 451.179 272.54 452.619 271.7C454.099 270.86 455.159 269.62 455.799 267.98L457.059 272.48C456.339 274.36 455.039 275.82 453.159 276.86C451.319 277.9 448.979 278.42 446.139 278.42ZM499.406 278.42C496.726 278.42 494.146 278.08 491.666 277.4C489.226 276.68 487.286 275.82 485.846 274.82L488.726 269.12C490.166 270.04 491.886 270.8 493.886 271.4C495.886 272 497.886 272.3 499.886 272.3C502.246 272.3 503.946 271.98 504.986 271.34C506.066 270.7 506.606 269.84 506.606 268.76C506.606 267.88 506.246 267.22 505.526 266.78C504.806 266.3 503.866 265.94 502.706 265.7C501.546 265.46 500.246 265.24 498.806 265.04C497.406 264.84 495.986 264.58 494.546 264.26C493.146 263.9 491.866 263.4 490.706 262.76C489.546 262.08 488.606 261.18 487.886 260.06C487.166 258.94 486.806 257.46 486.806 255.62C486.806 253.58 487.386 251.82 488.546 250.34C489.706 248.82 491.326 247.66 493.406 246.86C495.526 246.02 498.026 245.6 500.906 245.6C503.066 245.6 505.246 245.84 507.446 246.32C509.646 246.8 511.466 247.48 512.906 248.36L510.026 254.06C508.506 253.14 506.966 252.52 505.406 252.2C503.886 251.84 502.366 251.66 500.846 251.66C498.566 251.66 496.866 252 495.746 252.68C494.666 253.36 494.126 254.22 494.126 255.26C494.126 256.22 494.486 256.94 495.206 257.42C495.926 257.9 496.866 258.28 498.026 258.56C499.186 258.84 500.466 259.08 501.866 259.28C503.306 259.44 504.726 259.7 506.126 260.06C507.526 260.42 508.806 260.92 509.966 261.56C511.166 262.16 512.126 263.02 512.846 264.14C513.566 265.26 513.926 266.72 513.926 268.52C513.926 270.52 513.326 272.26 512.126 273.74C510.966 275.22 509.306 276.38 507.146 277.22C504.986 278.02 502.406 278.42 499.406 278.42ZM532.445 278.42C528.925 278.42 526.205 277.52 524.285 275.72C522.365 273.88 521.405 271.18 521.405 267.62V238.88H528.905V267.44C528.905 268.96 529.285 270.14 530.045 270.98C530.845 271.82 531.945 272.24 533.345 272.24C535.025 272.24 536.425 271.8 537.545 270.92L539.645 276.26C538.765 276.98 537.685 277.52 536.405 277.88C535.125 278.24 533.805 278.42 532.445 278.42ZM516.125 252.2V246.2H537.485V252.2H516.125ZM559.375 278.42C556.655 278.42 554.255 277.92 552.175 276.92C550.095 275.88 548.475 274.32 547.315 272.24C546.155 270.12 545.575 267.46 545.575 264.26V245.96H553.075V263.24C553.075 266.12 553.715 268.28 554.995 269.72C556.315 271.12 558.175 271.82 560.575 271.82C562.335 271.82 563.855 271.46 565.135 270.74C566.455 270.02 567.475 268.94 568.195 267.5C568.955 266.06 569.335 264.28 569.335 262.16V245.96H576.835V278H569.695V269.36L570.955 272C569.875 274.08 568.295 275.68 566.215 276.8C564.135 277.88 561.855 278.42 559.375 278.42ZM600.214 278.42C597.134 278.42 594.354 277.74 591.874 276.38C589.434 274.98 587.514 273.06 586.114 270.62C584.714 268.18 584.014 265.3 584.014 261.98C584.014 258.66 584.714 255.78 586.114 253.34C587.514 250.9 589.434 249 591.874 247.64C594.354 246.28 597.134 245.6 600.214 245.6C602.894 245.6 605.294 246.2 607.414 247.4C609.534 248.56 611.214 250.34 612.454 252.74C613.694 255.14 614.314 258.22 614.314 261.98C614.314 265.7 613.714 268.78 612.514 271.22C611.314 273.62 609.654 275.42 607.534 276.62C605.414 277.82 602.974 278.42 600.214 278.42ZM601.114 272C602.914 272 604.514 271.6 605.914 270.8C607.354 270 608.494 268.84 609.334 267.32C610.214 265.8 610.654 264.02 610.654 261.98C610.654 259.9 610.214 258.12 609.334 256.64C608.494 255.12 607.354 253.96 605.914 253.16C604.514 252.36 602.914 251.96 601.114 251.96C599.314 251.96 597.694 252.36 596.254 253.16C594.854 253.96 593.714 255.12 592.834 256.64C591.994 258.12 591.574 259.9 591.574 261.98C591.574 264.02 591.994 265.8 592.834 267.32C593.714 268.84 594.854 270 596.254 270.8C597.694 271.6 599.314 272 601.114 272ZM610.834 278V270.44L611.134 261.92L610.534 253.4V233.48H617.974V278H610.834ZM627.846 278V245.96H635.346V278H627.846ZM631.626 240.68C630.226 240.68 629.066 240.24 628.146 239.36C627.266 238.48 626.826 237.42 626.826 236.18C626.826 234.9 627.266 233.84 628.146 233C629.066 232.12 630.226 231.68 631.626 231.68C633.026 231.68 634.166 232.1 635.046 232.94C635.966 233.74 636.426 234.76 636.426 236C636.426 237.32 635.986 238.44 635.106 239.36C634.226 240.24 633.066 240.68 631.626 240.68ZM659.59 278.42C656.31 278.42 653.39 277.72 650.83 276.32C648.27 274.88 646.25 272.92 644.77 270.44C643.29 267.96 642.55 265.14 642.55 261.98C642.55 258.78 643.29 255.96 644.77 253.52C646.25 251.04 648.27 249.1 650.83 247.7C653.39 246.3 656.31 245.6 659.59 245.6C662.91 245.6 665.85 246.3 668.41 247.7C671.01 249.1 673.03 251.02 674.47 253.46C675.95 255.9 676.69 258.74 676.69 261.98C676.69 265.14 675.95 267.96 674.47 270.44C673.03 272.92 671.01 274.88 668.41 276.32C665.85 277.72 662.91 278.42 659.59 278.42ZM659.59 272C661.43 272 663.07 271.6 664.51 270.8C665.95 270 667.07 268.84 667.87 267.32C668.71 265.8 669.13 264.02 669.13 261.98C669.13 259.9 668.71 258.12 667.87 256.64C667.07 255.12 665.95 253.96 664.51 253.16C663.07 252.36 661.45 251.96 659.65 251.96C657.81 251.96 656.17 252.36 654.73 253.16C653.33 253.96 652.21 255.12 651.37 256.64C650.53 258.12 650.11 259.9 650.11 261.98C650.11 264.02 650.53 265.8 651.37 267.32C652.21 268.84 653.33 270 654.73 270.8C656.17 271.6 657.79 272 659.59 272Z" fill="white"/>
<path d="M76.256 397V380.2H83.168C84.656 380.2 85.928 380.44 86.984 380.92C88.056 381.4 88.88 382.088 89.456 382.984C90.032 383.88 90.32 384.944 90.32 386.176C90.32 387.408 90.032 388.472 89.456 389.368C88.88 390.248 88.056 390.928 86.984 391.408C85.928 391.872 84.656 392.104 83.168 392.104H77.984L79.376 390.688V397H76.256ZM87.248 397L83 390.904H86.336L90.608 397H87.248ZM79.376 391.024L77.984 389.536H83.024C84.4 389.536 85.432 389.24 86.12 388.648C86.824 388.056 87.176 387.232 87.176 386.176C87.176 385.104 86.824 384.28 86.12 383.704C85.432 383.128 84.4 382.84 83.024 382.84H77.984L79.376 381.304V391.024ZM99.5467 397.168C98.1227 397.168 96.8747 396.888 95.8027 396.328C94.7467 395.752 93.9227 394.968 93.3307 393.976C92.7547 392.984 92.4667 391.856 92.4667 390.592C92.4667 389.312 92.7467 388.184 93.3067 387.208C93.8827 386.216 94.6667 385.44 95.6587 384.88C96.6667 384.32 97.8107 384.04 99.0907 384.04C100.339 384.04 101.451 384.312 102.427 384.856C103.403 385.4 104.171 386.168 104.731 387.16C105.291 388.152 105.571 389.32 105.571 390.664C105.571 390.792 105.563 390.936 105.547 391.096C105.547 391.256 105.539 391.408 105.523 391.552H94.8427V389.56H103.939L102.763 390.184C102.779 389.448 102.627 388.8 102.307 388.24C101.987 387.68 101.547 387.24 100.987 386.92C100.443 386.6 99.8107 386.44 99.0907 386.44C98.3547 386.44 97.7067 386.6 97.1467 386.92C96.6027 387.24 96.1707 387.688 95.8507 388.264C95.5467 388.824 95.3947 389.488 95.3947 390.256V390.736C95.3947 391.504 95.5707 392.184 95.9227 392.776C96.2747 393.368 96.7707 393.824 97.4107 394.144C98.0507 394.464 98.7867 394.624 99.6187 394.624C100.339 394.624 100.987 394.512 101.563 394.288C102.139 394.064 102.651 393.712 103.099 393.232L104.707 395.08C104.131 395.752 103.403 396.272 102.523 396.64C101.659 396.992 100.667 397.168 99.5467 397.168ZM114.332 397.168C112.988 397.168 111.788 396.888 110.732 396.328C109.692 395.752 108.876 394.968 108.284 393.976C107.692 392.984 107.396 391.856 107.396 390.592C107.396 389.312 107.692 388.184 108.284 387.208C108.876 386.216 109.692 385.44 110.732 384.88C111.788 384.32 112.988 384.04 114.332 384.04C115.58 384.04 116.676 384.296 117.62 384.808C118.58 385.304 119.308 386.04 119.804 387.016L117.5 388.36C117.116 387.752 116.644 387.304 116.084 387.016C115.54 386.728 114.948 386.584 114.308 386.584C113.572 386.584 112.908 386.744 112.316 387.064C111.724 387.384 111.26 387.848 110.924 388.456C110.588 389.048 110.42 389.76 110.42 390.592C110.42 391.424 110.588 392.144 110.924 392.752C111.26 393.344 111.724 393.8 112.316 394.12C112.908 394.44 113.572 394.6 114.308 394.6C114.948 394.6 115.54 394.456 116.084 394.168C116.644 393.88 117.116 393.432 117.5 392.824L119.804 394.168C119.308 395.128 118.58 395.872 117.62 396.4C116.676 396.912 115.58 397.168 114.332 397.168ZM128.234 397.168C126.81 397.168 125.562 396.888 124.49 396.328C123.434 395.752 122.61 394.968 122.018 393.976C121.442 392.984 121.154 391.856 121.154 390.592C121.154 389.312 121.434 388.184 121.994 387.208C122.57 386.216 123.354 385.44 124.346 384.88C125.354 384.32 126.498 384.04 127.778 384.04C129.026 384.04 130.138 384.312 131.114 384.856C132.09 385.4 132.858 386.168 133.418 387.16C133.978 388.152 134.258 389.32 134.258 390.664C134.258 390.792 134.25 390.936 134.234 391.096C134.234 391.256 134.226 391.408 134.21 391.552H123.53V389.56H132.626L131.45 390.184C131.466 389.448 131.314 388.8 130.994 388.24C130.674 387.68 130.234 387.24 129.674 386.92C129.13 386.6 128.498 386.44 127.778 386.44C127.042 386.44 126.394 386.6 125.834 386.92C125.29 387.24 124.858 387.688 124.538 388.264C124.234 388.824 124.082 389.488 124.082 390.256V390.736C124.082 391.504 124.258 392.184 124.61 392.776C124.962 393.368 125.458 393.824 126.098 394.144C126.738 394.464 127.474 394.624 128.306 394.624C129.026 394.624 129.674 394.512 130.25 394.288C130.826 394.064 131.338 393.712 131.786 393.232L133.394 395.08C132.818 395.752 132.09 396.272 131.21 396.64C130.346 396.992 129.354 397.168 128.234 397.168ZM144.244 397.168C143.204 397.168 142.252 396.928 141.388 396.448C140.54 395.968 139.86 395.248 139.348 394.288C138.852 393.312 138.604 392.08 138.604 390.592C138.604 389.088 138.844 387.856 139.324 386.896C139.82 385.936 140.492 385.224 141.34 384.76C142.188 384.28 143.156 384.04 144.244 384.04C145.508 384.04 146.62 384.312 147.58 384.856C148.556 385.4 149.324 386.16 149.884 387.136C150.46 388.112 150.748 389.264 150.748 390.592C150.748 391.92 150.46 393.08 149.884 394.072C149.324 395.048 148.556 395.808 147.58 396.352C146.62 396.896 145.508 397.168 144.244 397.168ZM137.14 401.656V384.184H139.996V387.208L139.9 390.616L140.14 394.024V401.656H137.14ZM143.908 394.6C144.628 394.6 145.268 394.44 145.828 394.12C146.404 393.8 146.86 393.336 147.196 392.728C147.532 392.12 147.7 391.408 147.7 390.592C147.7 389.76 147.532 389.048 147.196 388.456C146.86 387.848 146.404 387.384 145.828 387.064C145.268 386.744 144.628 386.584 143.908 386.584C143.188 386.584 142.54 386.744 141.964 387.064C141.388 387.384 140.932 387.848 140.596 388.456C140.26 389.048 140.092 389.76 140.092 390.592C140.092 391.408 140.26 392.12 140.596 392.728C140.932 393.336 141.388 393.8 141.964 394.12C142.54 394.44 143.188 394.6 143.908 394.6ZM158.417 397.168C157.009 397.168 155.921 396.808 155.153 396.088C154.385 395.352 154.001 394.272 154.001 392.848V381.352H157.001V392.776C157.001 393.384 157.153 393.856 157.457 394.192C157.777 394.528 158.217 394.696 158.777 394.696C159.449 394.696 160.009 394.52 160.457 394.168L161.297 396.304C160.945 396.592 160.513 396.808 160.001 396.952C159.489 397.096 158.961 397.168 158.417 397.168ZM151.889 386.68V384.28H160.433V386.68H151.889ZM163.765 397V384.184H166.765V397H163.765ZM165.277 382.072C164.717 382.072 164.253 381.896 163.885 381.544C163.533 381.192 163.357 380.768 163.357 380.272C163.357 379.76 163.533 379.336 163.885 379C164.253 378.648 164.717 378.472 165.277 378.472C165.837 378.472 166.293 378.64 166.645 378.976C167.013 379.296 167.197 379.704 167.197 380.2C167.197 380.728 167.021 381.176 166.669 381.544C166.317 381.896 165.853 382.072 165.277 382.072ZM176.462 397.168C175.15 397.168 173.982 396.888 172.958 396.328C171.934 395.752 171.126 394.968 170.534 393.976C169.942 392.984 169.646 391.856 169.646 390.592C169.646 389.312 169.942 388.184 170.534 387.208C171.126 386.216 171.934 385.44 172.958 384.88C173.982 384.32 175.15 384.04 176.462 384.04C177.79 384.04 178.966 384.32 179.99 384.88C181.03 385.44 181.838 386.208 182.414 387.184C183.006 388.16 183.302 389.296 183.302 390.592C183.302 391.856 183.006 392.984 182.414 393.976C181.838 394.968 181.03 395.752 179.99 396.328C178.966 396.888 177.79 397.168 176.462 397.168ZM176.462 394.6C177.198 394.6 177.854 394.44 178.43 394.12C179.006 393.8 179.454 393.336 179.774 392.728C180.11 392.12 180.278 391.408 180.278 390.592C180.278 389.76 180.11 389.048 179.774 388.456C179.454 387.848 179.006 387.384 178.43 387.064C177.854 386.744 177.206 386.584 176.486 386.584C175.75 386.584 175.094 386.744 174.518 387.064C173.958 387.384 173.51 387.848 173.174 388.456C172.838 389.048 172.67 389.76 172.67 390.592C172.67 391.408 172.838 392.12 173.174 392.728C173.51 393.336 173.958 393.8 174.518 394.12C175.094 394.44 175.742 394.6 176.462 394.6ZM193.443 384.04C194.467 384.04 195.379 384.24 196.179 384.64C196.995 385.04 197.635 385.656 198.099 386.488C198.563 387.304 198.795 388.36 198.795 389.656V397H195.795V390.04C195.795 388.904 195.523 388.056 194.979 387.496C194.451 386.936 193.707 386.656 192.747 386.656C192.043 386.656 191.419 386.8 190.875 387.088C190.331 387.376 189.907 387.808 189.603 388.384C189.315 388.944 189.171 389.656 189.171 390.52V397H186.171V384.184H189.027V387.64L188.523 386.584C188.971 385.768 189.619 385.144 190.467 384.712C191.331 384.264 192.323 384.04 193.443 384.04Z" fill="white"/>
<path d="M171.271 134.906C170.177 134.906 169.131 134.753 168.131 134.446C167.131 134.126 166.337 133.72 165.751 133.226L166.651 131.206C167.211 131.646 167.904 132.013 168.731 132.306C169.557 132.6 170.404 132.746 171.271 132.746C172.004 132.746 172.597 132.666 173.051 132.506C173.504 132.346 173.837 132.133 174.051 131.866C174.264 131.586 174.371 131.273 174.371 130.926C174.371 130.5 174.217 130.16 173.911 129.906C173.604 129.64 173.204 129.433 172.711 129.286C172.231 129.126 171.691 128.98 171.091 128.846C170.504 128.713 169.911 128.56 169.311 128.386C168.724 128.2 168.184 127.966 167.691 127.686C167.211 127.393 166.817 127.006 166.511 126.526C166.204 126.046 166.051 125.433 166.051 124.686C166.051 123.926 166.251 123.233 166.651 122.606C167.064 121.966 167.684 121.46 168.511 121.086C169.351 120.7 170.411 120.506 171.691 120.506C172.531 120.506 173.364 120.613 174.191 120.826C175.017 121.04 175.737 121.346 176.351 121.746L175.531 123.766C174.904 123.393 174.257 123.12 173.591 122.946C172.924 122.76 172.284 122.666 171.671 122.666C170.951 122.666 170.364 122.753 169.911 122.926C169.471 123.1 169.144 123.326 168.931 123.606C168.731 123.886 168.631 124.206 168.631 124.566C168.631 124.993 168.777 125.34 169.071 125.606C169.377 125.86 169.771 126.06 170.251 126.206C170.744 126.353 171.291 126.5 171.891 126.646C172.491 126.78 173.084 126.933 173.671 127.106C174.271 127.28 174.811 127.506 175.291 127.786C175.784 128.066 176.177 128.446 176.471 128.926C176.777 129.406 176.931 130.013 176.931 130.746C176.931 131.493 176.724 132.186 176.311 132.826C175.911 133.453 175.291 133.96 174.451 134.346C173.611 134.72 172.551 134.906 171.271 134.906ZM184.289 134.846C183.102 134.846 182.062 134.613 181.169 134.146C180.289 133.666 179.602 133.013 179.109 132.186C178.629 131.36 178.389 130.42 178.389 129.366C178.389 128.3 178.622 127.36 179.089 126.546C179.569 125.72 180.222 125.073 181.049 124.606C181.889 124.14 182.842 123.906 183.909 123.906C184.949 123.906 185.876 124.133 186.689 124.586C187.502 125.04 188.142 125.68 188.609 126.506C189.076 127.333 189.309 128.306 189.309 129.426C189.309 129.533 189.302 129.653 189.289 129.786C189.289 129.92 189.282 130.046 189.269 130.166H180.369V128.506H187.949L186.969 129.026C186.982 128.413 186.856 127.873 186.589 127.406C186.322 126.94 185.956 126.573 185.489 126.306C185.036 126.04 184.509 125.906 183.909 125.906C183.296 125.906 182.756 126.04 182.289 126.306C181.836 126.573 181.476 126.946 181.209 127.426C180.956 127.893 180.829 128.446 180.829 129.086V129.486C180.829 130.126 180.976 130.693 181.269 131.186C181.562 131.68 181.976 132.06 182.509 132.326C183.042 132.593 183.656 132.726 184.349 132.726C184.949 132.726 185.489 132.633 185.969 132.446C186.449 132.26 186.876 131.966 187.249 131.566L188.589 133.106C188.109 133.666 187.502 134.1 186.769 134.406C186.049 134.7 185.222 134.846 184.289 134.846ZM191.71 134.706V124.026H194.09V126.966L193.81 126.106C194.13 125.386 194.63 124.84 195.31 124.466C196.004 124.093 196.864 123.906 197.89 123.906V126.286C197.784 126.26 197.684 126.246 197.59 126.246C197.497 126.233 197.404 126.226 197.31 126.226C196.364 126.226 195.61 126.506 195.05 127.066C194.49 127.613 194.21 128.433 194.21 129.526V134.706H191.71ZM203.242 134.706L198.662 124.026H201.262L205.202 133.446H203.922L208.002 124.026H210.402L205.822 134.706H203.242ZM216.691 134.846C215.505 134.846 214.465 134.613 213.571 134.146C212.691 133.666 212.005 133.013 211.511 132.186C211.031 131.36 210.791 130.42 210.791 129.366C210.791 128.3 211.025 127.36 211.491 126.546C211.971 125.72 212.625 125.073 213.451 124.606C214.291 124.14 215.245 123.906 216.311 123.906C217.351 123.906 218.278 124.133 219.091 124.586C219.905 125.04 220.545 125.68 221.011 126.506C221.478 127.333 221.711 128.306 221.711 129.426C221.711 129.533 221.705 129.653 221.691 129.786C221.691 129.92 221.685 130.046 221.671 130.166H212.771V128.506H220.351L219.371 129.026C219.385 128.413 219.258 127.873 218.991 127.406C218.725 126.94 218.358 126.573 217.891 126.306C217.438 126.04 216.911 125.906 216.311 125.906C215.698 125.906 215.158 126.04 214.691 126.306C214.238 126.573 213.878 126.946 213.611 127.426C213.358 127.893 213.231 128.446 213.231 129.086V129.486C213.231 130.126 213.378 130.693 213.671 131.186C213.965 131.68 214.378 132.06 214.911 132.326C215.445 132.593 216.058 132.726 216.751 132.726C217.351 132.726 217.891 132.633 218.371 132.446C218.851 132.26 219.278 131.966 219.651 131.566L220.991 133.106C220.511 133.666 219.905 134.1 219.171 134.406C218.451 134.7 217.625 134.846 216.691 134.846ZM224.113 134.706V124.026H226.493V126.966L226.213 126.106C226.533 125.386 227.033 124.84 227.713 124.466C228.406 124.093 229.266 123.906 230.293 123.906V126.286C230.186 126.26 230.086 126.246 229.993 126.246C229.899 126.233 229.806 126.226 229.713 126.226C228.766 126.226 228.013 126.506 227.453 127.066C226.893 127.613 226.613 128.433 226.613 129.526V134.706H224.113Z" fill="white"/>
<path d="M472.632 81V61.4H476.272V77.92H486.52V81H472.632ZM489.058 81V66.048H492.558V81H489.058ZM490.822 63.584C490.168 63.584 489.627 63.3787 489.198 62.968C488.787 62.5573 488.582 62.0627 488.582 61.484C488.582 60.8867 488.787 60.392 489.198 60C489.627 59.5893 490.168 59.384 490.822 59.384C491.475 59.384 492.007 59.58 492.418 59.972C492.847 60.3453 493.062 60.8213 493.062 61.4C493.062 62.016 492.856 62.5387 492.446 62.968C492.035 63.3787 491.494 63.584 490.822 63.584ZM503.927 86.628C502.546 86.628 501.193 86.4413 499.867 86.068C498.561 85.7133 497.487 85.1907 496.647 84.5L498.215 81.868C498.869 82.4093 499.69 82.8387 500.679 83.156C501.687 83.492 502.705 83.66 503.731 83.66C505.374 83.66 506.578 83.2773 507.343 82.512C508.109 81.7653 508.491 80.636 508.491 79.124V76.464L508.771 73.076L508.659 69.688V66.048H511.991V78.732C511.991 81.4387 511.301 83.4267 509.919 84.696C508.538 85.984 506.541 86.628 503.927 86.628ZM503.479 80.328C502.061 80.328 500.773 80.0293 499.615 79.432C498.477 78.816 497.571 77.9667 496.899 76.884C496.246 75.8013 495.919 74.532 495.919 73.076C495.919 71.6387 496.246 70.3787 496.899 69.296C497.571 68.2133 498.477 67.3733 499.615 66.776C500.773 66.1787 502.061 65.88 503.479 65.88C504.749 65.88 505.887 66.132 506.895 66.636C507.903 67.14 508.706 67.924 509.303 68.988C509.919 70.052 510.227 71.4147 510.227 73.076C510.227 74.7373 509.919 76.1093 509.303 77.192C508.706 78.256 507.903 79.0493 506.895 79.572C505.887 80.076 504.749 80.328 503.479 80.328ZM504.011 77.36C504.889 77.36 505.673 77.1827 506.363 76.828C507.054 76.4547 507.586 75.9507 507.959 75.316C508.351 74.6627 508.547 73.916 508.547 73.076C508.547 72.236 508.351 71.4987 507.959 70.864C507.586 70.2107 507.054 69.716 506.363 69.38C505.673 69.0253 504.889 68.848 504.011 68.848C503.134 68.848 502.341 69.0253 501.631 69.38C500.941 69.716 500.399 70.2107 500.007 70.864C499.634 71.4987 499.447 72.236 499.447 73.076C499.447 73.916 499.634 74.6627 500.007 75.316C500.399 75.9507 500.941 76.4547 501.631 76.828C502.341 77.1827 503.134 77.36 504.011 77.36ZM525.077 65.88C526.272 65.88 527.336 66.1133 528.269 66.58C529.221 67.0467 529.968 67.7653 530.509 68.736C531.05 69.688 531.321 70.92 531.321 72.432V81H527.821V72.88C527.821 71.5547 527.504 70.5653 526.869 69.912C526.253 69.2587 525.385 68.932 524.265 68.932C523.444 68.932 522.716 69.1 522.081 69.436C521.446 69.772 520.952 70.276 520.597 70.948C520.261 71.6013 520.093 72.432 520.093 73.44V81H516.593V60.224H520.093V70.08L519.337 68.848C519.86 67.896 520.616 67.168 521.605 66.664C522.613 66.1413 523.77 65.88 525.077 65.88ZM541.389 81.196C539.746 81.196 538.477 80.776 537.581 79.936C536.685 79.0773 536.237 77.8173 536.237 76.156V62.744H539.737V76.072C539.737 76.7813 539.914 77.332 540.269 77.724C540.642 78.116 541.156 78.312 541.809 78.312C542.593 78.312 543.246 78.1067 543.769 77.696L544.749 80.188C544.338 80.524 543.834 80.776 543.237 80.944C542.64 81.112 542.024 81.196 541.389 81.196ZM533.773 68.96V66.16H543.741V68.96H533.773ZM559.986 81.196C558.736 81.196 557.532 81.0373 556.374 80.72C555.236 80.384 554.33 79.9827 553.658 79.516L555.002 76.856C555.674 77.2853 556.477 77.64 557.41 77.92C558.344 78.2 559.277 78.34 560.21 78.34C561.312 78.34 562.105 78.1907 562.59 77.892C563.094 77.5933 563.346 77.192 563.346 76.688C563.346 76.2773 563.178 75.9693 562.842 75.764C562.506 75.54 562.068 75.372 561.526 75.26C560.985 75.148 560.378 75.0453 559.706 74.952C559.053 74.8587 558.39 74.7373 557.718 74.588C557.065 74.42 556.468 74.1867 555.926 73.888C555.385 73.5707 554.946 73.1507 554.61 72.628C554.274 72.1053 554.106 71.4147 554.106 70.556C554.106 69.604 554.377 68.7827 554.918 68.092C555.46 67.3827 556.216 66.8413 557.186 66.468C558.176 66.076 559.342 65.88 560.686 65.88C561.694 65.88 562.712 65.992 563.738 66.216C564.765 66.44 565.614 66.7573 566.286 67.168L564.942 69.828C564.233 69.3987 563.514 69.1093 562.786 68.96C562.077 68.792 561.368 68.708 560.658 68.708C559.594 68.708 558.801 68.8667 558.278 69.184C557.774 69.5013 557.522 69.9027 557.522 70.388C557.522 70.836 557.69 71.172 558.026 71.396C558.362 71.62 558.801 71.7973 559.342 71.928C559.884 72.0587 560.481 72.1707 561.134 72.264C561.806 72.3387 562.469 72.46 563.122 72.628C563.776 72.796 564.373 73.0293 564.914 73.328C565.474 73.608 565.922 74.0093 566.258 74.532C566.594 75.0547 566.762 75.736 566.762 76.576C566.762 77.5093 566.482 78.3213 565.922 79.012C565.381 79.7027 564.606 80.244 563.598 80.636C562.59 81.0093 561.386 81.196 559.986 81.196ZM575.404 81.196C573.762 81.196 572.492 80.776 571.596 79.936C570.7 79.0773 570.252 77.8173 570.252 76.156V62.744H573.752V76.072C573.752 76.7813 573.93 77.332 574.284 77.724C574.658 78.116 575.171 78.312 575.824 78.312C576.608 78.312 577.262 78.1067 577.784 77.696L578.764 80.188C578.354 80.524 577.85 80.776 577.252 80.944C576.655 81.112 576.039 81.196 575.404 81.196ZM567.788 68.96V66.16H577.756V68.96H567.788ZM587.972 81.196C586.702 81.196 585.582 80.9627 584.612 80.496C583.641 80.0107 582.885 79.2827 582.344 78.312C581.802 77.3227 581.532 76.0813 581.532 74.588V66.048H585.032V74.112C585.032 75.456 585.33 76.464 585.928 77.136C586.544 77.7893 587.412 78.116 588.532 78.116C589.353 78.116 590.062 77.948 590.66 77.612C591.276 77.276 591.752 76.772 592.088 76.1C592.442 75.428 592.62 74.5973 592.62 73.608V66.048H596.12V81H592.788V76.968L593.376 78.2C592.872 79.1707 592.134 79.9173 591.164 80.44C590.193 80.944 589.129 81.196 587.972 81.196ZM607.03 81.196C605.593 81.196 604.296 80.8787 603.138 80.244C602 79.5907 601.104 78.6947 600.45 77.556C599.797 76.4173 599.47 75.0733 599.47 73.524C599.47 71.9747 599.797 70.6307 600.45 69.492C601.104 68.3533 602 67.4667 603.138 66.832C604.296 66.1973 605.593 65.88 607.03 65.88C608.281 65.88 609.401 66.16 610.39 66.72C611.38 67.2613 612.164 68.092 612.742 69.212C613.321 70.332 613.61 71.7693 613.61 73.524C613.61 75.26 613.33 76.6973 612.77 77.836C612.21 78.956 611.436 79.796 610.446 80.356C609.457 80.916 608.318 81.196 607.03 81.196ZM607.45 78.2C608.29 78.2 609.037 78.0133 609.69 77.64C610.362 77.2667 610.894 76.7253 611.286 76.016C611.697 75.3067 611.902 74.476 611.902 73.524C611.902 72.5533 611.697 71.7227 611.286 71.032C610.894 70.3227 610.362 69.7813 609.69 69.408C609.037 69.0347 608.29 68.848 607.45 68.848C606.61 68.848 605.854 69.0347 605.182 69.408C604.529 69.7813 603.997 70.3227 603.586 71.032C603.194 71.7227 602.998 72.5533 602.998 73.524C602.998 74.476 603.194 75.3067 603.586 76.016C603.997 76.7253 604.529 77.2667 605.182 77.64C605.854 78.0133 606.61 78.2 607.45 78.2ZM611.986 81V77.472L612.126 73.496L611.846 69.52V60.224H615.318V81H611.986ZM619.925 81V66.048H623.425V81H619.925ZM621.689 63.584C621.036 63.584 620.494 63.3787 620.065 62.968C619.654 62.5573 619.449 62.0627 619.449 61.484C619.449 60.8867 619.654 60.392 620.065 60C620.494 59.5893 621.036 59.384 621.689 59.384C622.342 59.384 622.874 59.58 623.285 59.972C623.714 60.3453 623.929 60.8213 623.929 61.4C623.929 62.016 623.724 62.5387 623.313 62.968C622.902 63.3787 622.361 63.584 621.689 63.584ZM634.739 81.196C633.208 81.196 631.845 80.8693 630.651 80.216C629.456 79.544 628.513 78.6293 627.823 77.472C627.132 76.3147 626.787 74.9987 626.787 73.524C626.787 72.0307 627.132 70.7147 627.823 69.576C628.513 68.4187 629.456 67.5133 630.651 66.86C631.845 66.2067 633.208 65.88 634.739 65.88C636.288 65.88 637.66 66.2067 638.855 66.86C640.068 67.5133 641.011 68.4093 641.683 69.548C642.373 70.6867 642.719 72.012 642.719 73.524C642.719 74.9987 642.373 76.3147 641.683 77.472C641.011 78.6293 640.068 79.544 638.855 80.216C637.66 80.8693 636.288 81.196 634.739 81.196ZM634.739 78.2C635.597 78.2 636.363 78.0133 637.035 77.64C637.707 77.2667 638.229 76.7253 638.603 76.016C638.995 75.3067 639.191 74.476 639.191 73.524C639.191 72.5533 638.995 71.7227 638.603 71.032C638.229 70.3227 637.707 69.7813 637.035 69.408C636.363 69.0347 635.607 68.848 634.767 68.848C633.908 68.848 633.143 69.0347 632.471 69.408C631.817 69.7813 631.295 70.3227 630.903 71.032C630.511 71.7227 630.315 72.5533 630.315 73.524C630.315 74.476 630.511 75.3067 630.903 76.016C631.295 76.7253 631.817 77.2667 632.471 77.64C633.143 78.0133 633.899 78.2 634.739 78.2Z" fill="white"/>
<path d="M367.04 591L354.8 563H360.44L371.36 588.32H368.12L379.16 563H384.36L372.16 591H367.04ZM387.315 591V563H392.515V591H387.315ZM400.088 591V563H411.608C414.088 563 416.208 563.4 417.968 564.2C419.755 565 421.128 566.147 422.088 567.64C423.048 569.133 423.528 570.907 423.528 572.96C423.528 575.013 423.048 576.787 422.088 578.28C421.128 579.773 419.755 580.92 417.968 581.72C416.208 582.52 414.088 582.92 411.608 582.92H402.968L405.288 580.48V591H400.088ZM405.288 581.04L402.968 578.52H411.368C413.661 578.52 415.381 578.04 416.528 577.08C417.701 576.093 418.288 574.72 418.288 572.96C418.288 571.173 417.701 569.8 416.528 568.84C415.381 567.88 413.661 567.4 411.368 567.4H402.968L405.288 564.84V581.04ZM438.606 581.96V577.8H449.606V581.96H438.606ZM466.132 591V569.64H470.892V575.52L470.332 573.8C470.972 572.36 471.972 571.267 473.332 570.52C474.718 569.773 476.438 569.4 478.492 569.4V574.16C478.278 574.107 478.078 574.08 477.892 574.08C477.705 574.053 477.518 574.04 477.332 574.04C475.438 574.04 473.932 574.6 472.812 575.72C471.692 576.813 471.132 578.453 471.132 580.64V591H466.132ZM492.138 591.28C489.951 591.28 488.004 590.813 486.298 589.88C484.591 588.92 483.244 587.613 482.258 585.96C481.271 584.307 480.778 582.427 480.778 580.32C480.778 578.187 481.271 576.307 482.258 574.68C483.244 573.027 484.591 571.733 486.298 570.8C488.004 569.867 489.951 569.4 492.138 569.4C494.351 569.4 496.311 569.867 498.018 570.8C499.751 571.733 501.098 573.013 502.058 574.64C503.044 576.267 503.538 578.16 503.538 580.32C503.538 582.427 503.044 584.307 502.058 585.96C501.098 587.613 499.751 588.92 498.018 589.88C496.311 590.813 494.351 591.28 492.138 591.28ZM492.138 587C493.364 587 494.458 586.733 495.418 586.2C496.378 585.667 497.124 584.893 497.658 583.88C498.218 582.867 498.498 581.68 498.498 580.32C498.498 578.933 498.218 577.747 497.658 576.76C497.124 575.747 496.378 574.973 495.418 574.44C494.458 573.907 493.378 573.64 492.178 573.64C490.951 573.64 489.858 573.907 488.898 574.44C487.964 574.973 487.218 575.747 486.658 576.76C486.098 577.747 485.818 578.933 485.818 580.32C485.818 581.68 486.098 582.867 486.658 583.88C487.218 584.893 487.964 585.667 488.898 586.2C489.858 586.733 490.938 587 492.138 587ZM517.919 591.28C515.732 591.28 513.786 590.813 512.079 589.88C510.372 588.92 509.026 587.613 508.039 585.96C507.052 584.307 506.559 582.427 506.559 580.32C506.559 578.187 507.052 576.307 508.039 574.68C509.026 573.027 510.372 571.733 512.079 570.8C513.786 569.867 515.732 569.4 517.919 569.4C520.132 569.4 522.092 569.867 523.799 570.8C525.532 571.733 526.879 573.013 527.839 574.64C528.826 576.267 529.319 578.16 529.319 580.32C529.319 582.427 528.826 584.307 527.839 585.96C526.879 587.613 525.532 588.92 523.799 589.88C522.092 590.813 520.132 591.28 517.919 591.28ZM517.919 587C519.146 587 520.239 586.733 521.199 586.2C522.159 585.667 522.906 584.893 523.439 583.88C523.999 582.867 524.279 581.68 524.279 580.32C524.279 578.933 523.999 577.747 523.439 576.76C522.906 575.747 522.159 574.973 521.199 574.44C520.239 573.907 519.159 573.64 517.959 573.64C516.732 573.64 515.639 573.907 514.679 574.44C513.746 574.973 512.999 575.747 512.439 576.76C511.879 577.747 511.599 578.933 511.599 580.32C511.599 581.68 511.879 582.867 512.439 583.88C512.999 584.893 513.746 585.667 514.679 586.2C515.639 586.733 516.719 587 517.919 587ZM561.06 569.4C562.767 569.4 564.274 569.733 565.58 570.4C566.914 571.067 567.954 572.093 568.7 573.48C569.447 574.84 569.82 576.6 569.82 578.76V591H564.82V579.4C564.82 577.507 564.407 576.093 563.58 575.16C562.754 574.227 561.567 573.76 560.02 573.76C558.927 573.76 557.954 574 557.1 574.48C556.274 574.96 555.62 575.667 555.14 576.6C554.687 577.533 554.46 578.72 554.46 580.16V591H549.46V579.4C549.46 577.507 549.047 576.093 548.22 575.16C547.394 574.227 546.207 573.76 544.66 573.76C543.567 573.76 542.594 574 541.74 574.48C540.914 574.96 540.26 575.667 539.78 576.6C539.327 577.533 539.1 578.72 539.1 580.16V591H534.1V569.64H538.86V575.32L538.02 573.64C538.74 572.253 539.78 571.2 541.14 570.48C542.527 569.76 544.1 569.4 545.86 569.4C547.86 569.4 549.594 569.893 551.06 570.88C552.554 571.867 553.54 573.36 554.02 575.36L552.06 574.68C552.754 573.08 553.9 571.8 555.5 570.84C557.1 569.88 558.954 569.4 561.06 569.4ZM582.81 591.28C581.023 591.28 579.303 591.053 577.65 590.6C576.023 590.12 574.73 589.547 573.77 588.88L575.69 585.08C576.65 585.693 577.796 586.2 579.13 586.6C580.463 587 581.796 587.2 583.13 587.2C584.703 587.2 585.836 586.987 586.53 586.56C587.25 586.133 587.61 585.56 587.61 584.84C587.61 584.253 587.37 583.813 586.89 583.52C586.41 583.2 585.783 582.96 585.01 582.8C584.236 582.64 583.37 582.493 582.41 582.36C581.476 582.227 580.53 582.053 579.57 581.84C578.636 581.6 577.783 581.267 577.01 580.84C576.236 580.387 575.61 579.787 575.13 579.04C574.65 578.293 574.41 577.307 574.41 576.08C574.41 574.72 574.796 573.547 575.57 572.56C576.343 571.547 577.423 570.773 578.81 570.24C580.223 569.68 581.89 569.4 583.81 569.4C585.25 569.4 586.703 569.56 588.17 569.88C589.636 570.2 590.85 570.653 591.81 571.24L589.89 575.04C588.876 574.427 587.85 574.013 586.81 573.8C585.796 573.56 584.783 573.44 583.77 573.44C582.25 573.44 581.116 573.667 580.37 574.12C579.65 574.573 579.29 575.147 579.29 575.84C579.29 576.48 579.53 576.96 580.01 577.28C580.49 577.6 581.116 577.853 581.89 578.04C582.663 578.227 583.516 578.387 584.45 578.52C585.41 578.627 586.356 578.8 587.29 579.04C588.223 579.28 589.076 579.613 589.85 580.04C590.65 580.44 591.29 581.013 591.77 581.76C592.25 582.507 592.49 583.48 592.49 584.68C592.49 586.013 592.09 587.173 591.29 588.16C590.516 589.147 589.41 589.92 587.97 590.48C586.53 591.013 584.81 591.28 582.81 591.28Z" fill="white"/>
<path d="M238.238 92.4587V77.0587H244.97C246.642 77.0587 248.109 77.3814 249.37 78.0267C250.631 78.6721 251.614 79.5667 252.318 80.7107C253.022 81.8547 253.374 83.2041 253.374 84.7587C253.374 86.2987 253.022 87.6481 252.318 88.8067C251.614 89.9507 250.631 90.8454 249.37 91.4907C248.109 92.1361 246.642 92.4587 244.97 92.4587H238.238ZM241.098 90.0387H244.838C245.997 90.0387 246.994 89.8187 247.83 89.3787C248.681 88.9387 249.333 88.3227 249.788 87.5307C250.257 86.7387 250.492 85.8147 250.492 84.7587C250.492 83.6881 250.257 82.7641 249.788 81.9867C249.333 81.1947 248.681 80.5787 247.83 80.1387C246.994 79.6987 245.997 79.4787 244.838 79.4787H241.098V90.0387ZM256.15 92.4587V80.7107H258.768V83.9447L258.46 82.9987C258.812 82.2067 259.362 81.6054 260.11 81.1947C260.872 80.7841 261.818 80.5787 262.948 80.5787V83.1967C262.83 83.1674 262.72 83.1527 262.618 83.1527C262.515 83.1381 262.412 83.1307 262.31 83.1307C261.268 83.1307 260.44 83.4387 259.824 84.0547C259.208 84.6561 258.9 85.5581 258.9 86.7607V92.4587H256.15ZM270.695 92.6127C269.39 92.6127 268.246 92.3561 267.263 91.8427C266.295 91.3147 265.54 90.5961 264.997 89.6867C264.469 88.7774 264.205 87.7434 264.205 86.5847C264.205 85.4114 264.462 84.3774 264.975 83.4827C265.503 82.5734 266.222 81.8621 267.131 81.3487C268.055 80.8354 269.104 80.5787 270.277 80.5787C271.421 80.5787 272.44 80.8281 273.335 81.3267C274.23 81.8254 274.934 82.5294 275.447 83.4387C275.96 84.3481 276.217 85.4187 276.217 86.6507C276.217 86.7681 276.21 86.9001 276.195 87.0467C276.195 87.1934 276.188 87.3327 276.173 87.4647H266.383V85.6387H274.721L273.643 86.2107C273.658 85.5361 273.518 84.9421 273.225 84.4287C272.932 83.9154 272.528 83.5121 272.015 83.2187C271.516 82.9254 270.937 82.7787 270.277 82.7787C269.602 82.7787 269.008 82.9254 268.495 83.2187C267.996 83.5121 267.6 83.9227 267.307 84.4507C267.028 84.9641 266.889 85.5727 266.889 86.2767V86.7167C266.889 87.4207 267.05 88.0441 267.373 88.5867C267.696 89.1294 268.15 89.5474 268.737 89.8407C269.324 90.1341 269.998 90.2807 270.761 90.2807C271.421 90.2807 272.015 90.1781 272.543 89.9727C273.071 89.7674 273.54 89.4447 273.951 89.0047L275.425 90.6987C274.897 91.3147 274.23 91.7914 273.423 92.1287C272.631 92.4514 271.722 92.6127 270.695 92.6127ZM282.489 92.6127C281.506 92.6127 280.56 92.4881 279.651 92.2387C278.756 91.9747 278.045 91.6594 277.517 91.2927L278.573 89.2027C279.101 89.5401 279.731 89.8187 280.465 90.0387C281.198 90.2587 281.931 90.3687 282.665 90.3687C283.53 90.3687 284.153 90.2514 284.535 90.0167C284.931 89.7821 285.129 89.4667 285.129 89.0707C285.129 88.7481 284.997 88.5061 284.733 88.3447C284.469 88.1687 284.124 88.0367 283.699 87.9487C283.273 87.8607 282.797 87.7801 282.269 87.7067C281.755 87.6334 281.235 87.5381 280.707 87.4207C280.193 87.2887 279.724 87.1054 279.299 86.8707C278.873 86.6214 278.529 86.2914 278.265 85.8807C278.001 85.4701 277.869 84.9274 277.869 84.2527C277.869 83.5047 278.081 82.8594 278.507 82.3167C278.932 81.7594 279.526 81.3341 280.289 81.0407C281.066 80.7327 281.983 80.5787 283.039 80.5787C283.831 80.5787 284.63 80.6667 285.437 80.8427C286.243 81.0187 286.911 81.2681 287.439 81.5907L286.383 83.6807C285.825 83.3434 285.261 83.1161 284.689 82.9987C284.131 82.8667 283.574 82.8007 283.017 82.8007C282.181 82.8007 281.557 82.9254 281.147 83.1747C280.751 83.4241 280.553 83.7394 280.553 84.1207C280.553 84.4727 280.685 84.7367 280.949 84.9127C281.213 85.0887 281.557 85.2281 281.983 85.3307C282.408 85.4334 282.877 85.5214 283.391 85.5947C283.919 85.6534 284.439 85.7487 284.953 85.8807C285.466 86.0127 285.935 86.1961 286.361 86.4307C286.801 86.6507 287.153 86.9661 287.417 87.3767C287.681 87.7874 287.813 88.3227 287.813 88.9827C287.813 89.7161 287.593 90.3541 287.153 90.8967C286.727 91.4394 286.119 91.8647 285.327 92.1727C284.535 92.4661 283.589 92.6127 282.489 92.6127ZM293.811 92.6127C292.828 92.6127 291.882 92.4881 290.973 92.2387C290.078 91.9747 289.367 91.6594 288.839 91.2927L289.895 89.2027C290.423 89.5401 291.054 89.8187 291.787 90.0387C292.52 90.2587 293.254 90.3687 293.987 90.3687C294.852 90.3687 295.476 90.2514 295.857 90.0167C296.253 89.7821 296.451 89.4667 296.451 89.0707C296.451 88.7481 296.319 88.5061 296.055 88.3447C295.791 88.1687 295.446 88.0367 295.021 87.9487C294.596 87.8607 294.119 87.7801 293.591 87.7067C293.078 87.6334 292.557 87.5381 292.029 87.4207C291.516 87.2887 291.046 87.1054 290.621 86.8707C290.196 86.6214 289.851 86.2914 289.587 85.8807C289.323 85.4701 289.191 84.9274 289.191 84.2527C289.191 83.5047 289.404 82.8594 289.829 82.3167C290.254 81.7594 290.848 81.3341 291.611 81.0407C292.388 80.7327 293.305 80.5787 294.361 80.5787C295.153 80.5787 295.952 80.6667 296.759 80.8427C297.566 81.0187 298.233 81.2681 298.761 81.5907L297.705 83.6807C297.148 83.3434 296.583 83.1161 296.011 82.9987C295.454 82.8667 294.896 82.8007 294.339 82.8007C293.503 82.8007 292.88 82.9254 292.469 83.1747C292.073 83.4241 291.875 83.7394 291.875 84.1207C291.875 84.4727 292.007 84.7367 292.271 84.9127C292.535 85.0887 292.88 85.2281 293.305 85.3307C293.73 85.4334 294.2 85.5214 294.713 85.5947C295.241 85.6534 295.762 85.7487 296.275 85.8807C296.788 86.0127 297.258 86.1961 297.683 86.4307C298.123 86.6507 298.475 86.9661 298.739 87.3767C299.003 87.7874 299.135 88.3227 299.135 88.9827C299.135 89.7161 298.915 90.3541 298.475 90.8967C298.05 91.4394 297.441 91.8647 296.649 92.1727C295.857 92.4661 294.911 92.6127 293.811 92.6127ZM301.503 92.4587V80.7107H304.253V92.4587H301.503ZM302.889 78.7747C302.376 78.7747 301.951 78.6134 301.613 78.2907C301.291 77.9681 301.129 77.5794 301.129 77.1247C301.129 76.6554 301.291 76.2667 301.613 75.9587C301.951 75.6361 302.376 75.4747 302.889 75.4747C303.403 75.4747 303.821 75.6287 304.143 75.9367C304.481 76.2301 304.649 76.6041 304.649 77.0587C304.649 77.5427 304.488 77.9534 304.165 78.2907C303.843 78.6134 303.417 78.7747 302.889 78.7747ZM314.529 80.5787C315.467 80.5787 316.303 80.7621 317.037 81.1287C317.785 81.4954 318.371 82.0601 318.797 82.8227C319.222 83.5707 319.435 84.5387 319.435 85.7267V92.4587H316.685V86.0787C316.685 85.0374 316.435 84.2601 315.937 83.7467C315.453 83.2334 314.771 82.9767 313.891 82.9767C313.245 82.9767 312.673 83.1087 312.175 83.3727C311.676 83.6367 311.287 84.0327 311.009 84.5607C310.745 85.0741 310.613 85.7267 310.613 86.5187V92.4587H307.863V80.7107H310.481V83.8787L310.019 82.9107C310.429 82.1627 311.023 81.5907 311.801 81.1947C312.593 80.7841 313.502 80.5787 314.529 80.5787ZM328.269 96.8807C327.183 96.8807 326.12 96.7341 325.079 96.4407C324.052 96.1621 323.209 95.7514 322.549 95.2087L323.781 93.1407C324.294 93.5661 324.939 93.9034 325.717 94.1527C326.509 94.4167 327.308 94.5487 328.115 94.5487C329.405 94.5487 330.351 94.2481 330.953 93.6467C331.554 93.0601 331.855 92.1727 331.855 90.9847V88.8947L332.075 86.2327L331.987 83.5707V80.7107H334.605V90.6767C334.605 92.8034 334.062 94.3654 332.977 95.3627C331.891 96.3747 330.322 96.8807 328.269 96.8807ZM327.917 91.9307C326.802 91.9307 325.79 91.6961 324.881 91.2267C323.986 90.7427 323.275 90.0754 322.747 89.2247C322.233 88.3741 321.977 87.3767 321.977 86.2327C321.977 85.1034 322.233 84.1134 322.747 83.2627C323.275 82.4121 323.986 81.7521 324.881 81.2827C325.79 80.8134 326.802 80.5787 327.917 80.5787C328.914 80.5787 329.809 80.7767 330.601 81.1727C331.393 81.5687 332.023 82.1847 332.493 83.0207C332.977 83.8567 333.219 84.9274 333.219 86.2327C333.219 87.5381 332.977 88.6161 332.493 89.4667C332.023 90.3027 331.393 90.9261 330.601 91.3367C329.809 91.7327 328.914 91.9307 327.917 91.9307ZM328.335 89.5987C329.024 89.5987 329.64 89.4594 330.183 89.1807C330.725 88.8874 331.143 88.4914 331.437 87.9927C331.745 87.4794 331.899 86.8927 331.899 86.2327C331.899 85.5727 331.745 84.9934 331.437 84.4947C331.143 83.9814 330.725 83.5927 330.183 83.3287C329.64 83.0501 329.024 82.9107 328.335 82.9107C327.645 82.9107 327.022 83.0501 326.465 83.3287C325.922 83.5927 325.497 83.9814 325.189 84.4947C324.895 84.9934 324.749 85.5727 324.749 86.2327C324.749 86.8927 324.895 87.4794 325.189 87.9927C325.497 88.4914 325.922 88.8874 326.465 89.1807C327.022 89.4594 327.645 89.5987 328.335 89.5987ZM344.3 92.4587V80.7107H346.918V83.9447L346.61 82.9987C346.962 82.2067 347.512 81.6054 348.26 81.1947C349.023 80.7841 349.969 80.5787 351.098 80.5787V83.1967C350.981 83.1674 350.871 83.1527 350.768 83.1527C350.665 83.1381 350.563 83.1307 350.46 83.1307C349.419 83.1307 348.59 83.4387 347.974 84.0547C347.358 84.6561 347.05 85.5581 347.05 86.7607V92.4587H344.3ZM358.604 92.6127C357.401 92.6127 356.33 92.3561 355.392 91.8427C354.453 91.3147 353.712 90.5961 353.17 89.6867C352.627 88.7774 352.356 87.7434 352.356 86.5847C352.356 85.4114 352.627 84.3774 353.17 83.4827C353.712 82.5734 354.453 81.8621 355.392 81.3487C356.33 80.8354 357.401 80.5787 358.604 80.5787C359.821 80.5787 360.899 80.8354 361.838 81.3487C362.791 81.8621 363.532 82.5661 364.06 83.4607C364.602 84.3554 364.874 85.3967 364.874 86.5847C364.874 87.7434 364.602 88.7774 364.06 89.6867C363.532 90.5961 362.791 91.3147 361.838 91.8427C360.899 92.3561 359.821 92.6127 358.604 92.6127ZM358.604 90.2587C359.278 90.2587 359.88 90.1121 360.408 89.8187C360.936 89.5254 361.346 89.1001 361.64 88.5427C361.948 87.9854 362.102 87.3327 362.102 86.5847C362.102 85.8221 361.948 85.1694 361.64 84.6267C361.346 84.0694 360.936 83.6441 360.408 83.3507C359.88 83.0574 359.286 82.9107 358.626 82.9107C357.951 82.9107 357.35 83.0574 356.822 83.3507C356.308 83.6441 355.898 84.0694 355.59 84.6267C355.282 85.1694 355.128 85.8221 355.128 86.5847C355.128 87.3327 355.282 87.9854 355.59 88.5427C355.898 89.1001 356.308 89.5254 356.822 89.8187C357.35 90.1121 357.944 90.2587 358.604 90.2587ZM372.783 92.6127C371.581 92.6127 370.51 92.3561 369.571 91.8427C368.633 91.3147 367.892 90.5961 367.349 89.6867C366.807 88.7774 366.535 87.7434 366.535 86.5847C366.535 85.4114 366.807 84.3774 367.349 83.4827C367.892 82.5734 368.633 81.8621 369.571 81.3487C370.51 80.8354 371.581 80.5787 372.783 80.5787C374.001 80.5787 375.079 80.8354 376.017 81.3487C376.971 81.8621 377.711 82.5661 378.239 83.4607C378.782 84.3554 379.053 85.3967 379.053 86.5847C379.053 87.7434 378.782 88.7774 378.239 89.6867C377.711 90.5961 376.971 91.3147 376.017 91.8427C375.079 92.3561 374.001 92.6127 372.783 92.6127ZM372.783 90.2587C373.458 90.2587 374.059 90.1121 374.587 89.8187C375.115 89.5254 375.526 89.1001 375.819 88.5427C376.127 87.9854 376.281 87.3327 376.281 86.5847C376.281 85.8221 376.127 85.1694 375.819 84.6267C375.526 84.0694 375.115 83.6441 374.587 83.3507C374.059 83.0574 373.465 82.9107 372.805 82.9107C372.131 82.9107 371.529 83.0574 371.001 83.3507C370.488 83.6441 370.077 84.0694 369.769 84.6267C369.461 85.1694 369.307 85.8221 369.307 86.5847C369.307 87.3327 369.461 87.9854 369.769 88.5427C370.077 89.1001 370.488 89.5254 371.001 89.8187C371.529 90.1121 372.123 90.2587 372.783 90.2587ZM396.511 80.5787C397.45 80.5787 398.278 80.7621 398.997 81.1287C399.73 81.4954 400.302 82.0601 400.713 82.8227C401.124 83.5707 401.329 84.5387 401.329 85.7267V92.4587H398.579V86.0787C398.579 85.0374 398.352 84.2601 397.897 83.7467C397.442 83.2334 396.79 82.9767 395.939 82.9767C395.338 82.9767 394.802 83.1087 394.333 83.3727C393.878 83.6367 393.519 84.0254 393.255 84.5387C393.006 85.0521 392.881 85.7047 392.881 86.4967V92.4587H390.131V86.0787C390.131 85.0374 389.904 84.2601 389.449 83.7467C388.994 83.2334 388.342 82.9767 387.491 82.9767C386.89 82.9767 386.354 83.1087 385.885 83.3727C385.43 83.6367 385.071 84.0254 384.807 84.5387C384.558 85.0521 384.433 85.7047 384.433 86.4967V92.4587H381.683V80.7107H384.301V83.8347L383.839 82.9107C384.235 82.1481 384.807 81.5687 385.555 81.1727C386.318 80.7767 387.183 80.5787 388.151 80.5787C389.251 80.5787 390.204 80.8501 391.011 81.3927C391.832 81.9354 392.375 82.7567 392.639 83.8567L391.561 83.4827C391.942 82.6027 392.573 81.8987 393.453 81.3707C394.333 80.8427 395.352 80.5787 396.511 80.5787ZM408.473 92.6127C407.49 92.6127 406.544 92.4881 405.635 92.2387C404.74 91.9747 404.029 91.6594 403.501 91.2927L404.557 89.2027C405.085 89.5401 405.716 89.8187 406.449 90.0387C407.182 90.2587 407.916 90.3687 408.649 90.3687C409.514 90.3687 410.138 90.2514 410.519 90.0167C410.915 89.7821 411.113 89.4667 411.113 89.0707C411.113 88.7481 410.981 88.5061 410.717 88.3447C410.453 88.1687 410.108 88.0367 409.683 87.9487C409.258 87.8607 408.781 87.7801 408.253 87.7067C407.74 87.6334 407.219 87.5381 406.691 87.4207C406.178 87.2887 405.708 87.1054 405.283 86.8707C404.858 86.6214 404.513 86.2914 404.249 85.8807C403.985 85.4701 403.853 84.9274 403.853 84.2527C403.853 83.5047 404.066 82.8594 404.491 82.3167C404.916 81.7594 405.51 81.3341 406.273 81.0407C407.05 80.7327 407.967 80.5787 409.023 80.5787C409.815 80.5787 410.614 80.6667 411.421 80.8427C412.228 81.0187 412.895 81.2681 413.423 81.5907L412.367 83.6807C411.81 83.3434 411.245 83.1161 410.673 82.9987C410.116 82.8667 409.558 82.8007 409.001 82.8007C408.165 82.8007 407.542 82.9254 407.131 83.1747C406.735 83.4241 406.537 83.7394 406.537 84.1207C406.537 84.4727 406.669 84.7367 406.933 84.9127C407.197 85.0887 407.542 85.2281 407.967 85.3307C408.392 85.4334 408.862 85.5214 409.375 85.5947C409.903 85.6534 410.424 85.7487 410.937 85.8807C411.45 86.0127 411.92 86.1961 412.345 86.4307C412.785 86.6507 413.137 86.9661 413.401 87.3767C413.665 87.7874 413.797 88.3227 413.797 88.9827C413.797 89.7161 413.577 90.3541 413.137 90.8967C412.712 91.4394 412.103 91.8647 411.311 92.1727C410.519 92.4661 409.573 92.6127 408.473 92.6127Z" fill="white"/>
<path d="M278.72 392.68L278.42 393.634L278.428 393.637L278.436 393.639L278.72 392.68ZM264.56 385.48L263.682 385.002L263.279 385.741L263.939 386.264L264.56 385.48ZM271.16 373.36L271.792 372.585L270.858 371.823L270.282 372.882L271.16 373.36ZM282.2 379.36L281.868 380.303L281.873 380.305L282.2 379.36ZM308.84 378.16L308.253 377.35L308.243 377.358L308.84 378.16ZM311.6 361.84L310.758 362.379L310.765 362.391L310.773 362.402L311.6 361.84ZM304.64 357.28L304.338 358.233L304.344 358.235L304.64 357.28ZM270.8 355.72L269.804 355.626L269.701 356.72H270.8V355.72ZM275.12 310V309H274.21L274.124 309.906L275.12 310ZM324.44 310H325.44V309H324.44V310ZM324.44 323.08V324.08H325.44V323.08H324.44ZM280.88 323.08L280.206 322.341L278.299 324.08H280.88V323.08ZM289.04 315.64L290.036 315.734L290.28 313.156L288.366 314.901L289.04 315.64ZM285.8 349.84L285.132 350.584L286.608 351.909L286.796 349.934L285.8 349.84ZM277.64 342.52V341.52H275.028L276.972 343.264L277.64 342.52ZM314.6 345.88L314.194 346.794L314.203 346.798L314.211 346.801L314.6 345.88ZM325.76 355L324.899 355.509L324.906 355.52L324.912 355.53L325.76 355ZM325.76 381.64L324.898 381.133L325.76 381.64ZM314.72 391.48L314.273 390.586L314.267 390.589L314.72 391.48ZM296.12 394.2C290.296 394.2 284.592 393.374 279.004 391.721L278.436 393.639C284.208 395.346 290.104 396.2 296.12 396.2V394.2ZM279.02 391.726C273.514 389.996 268.908 387.647 265.181 384.696L263.939 386.264C267.892 389.393 272.726 391.844 278.42 393.634L279.02 391.726ZM265.438 385.958L272.038 373.838L270.282 372.882L263.682 385.002L265.438 385.958ZM270.528 374.135C273.671 376.699 277.457 378.751 281.868 380.303L282.532 378.417C278.303 376.929 274.729 374.981 271.792 372.585L270.528 374.135ZM281.873 380.305C286.38 381.862 291.05 382.64 295.88 382.64V380.64C291.27 380.64 286.82 379.898 282.527 378.415L281.873 380.305ZM295.88 382.64C301.527 382.64 306.085 381.455 309.437 378.962L308.243 377.358C305.355 379.505 301.273 380.64 295.88 380.64V382.64ZM309.427 378.97C312.884 376.463 314.64 373.044 314.64 368.8H312.64C312.64 372.396 311.196 375.217 308.253 377.35L309.427 378.97ZM314.64 368.8C314.64 365.979 313.91 363.459 312.427 361.278L310.773 362.402C312.01 364.221 312.64 366.341 312.64 368.8H314.64ZM312.442 361.301C310.986 359.026 308.416 357.402 304.936 356.325L304.344 358.235C307.584 359.238 309.654 360.654 310.758 362.379L312.442 361.301ZM304.942 356.327C301.521 355.242 296.883 354.72 291.08 354.72V356.72C296.797 356.72 301.199 357.238 304.338 358.233L304.942 356.327ZM291.08 354.72H270.8V356.72H291.08V354.72ZM271.796 355.814L276.116 310.094L274.124 309.906L269.804 355.626L271.796 355.814ZM275.12 311H324.44V309H275.12V311ZM323.44 310V323.08H325.44V310H323.44ZM324.44 322.08H280.88V324.08H324.44V322.08ZM281.554 323.819L289.714 316.379L288.366 314.901L280.206 322.341L281.554 323.819ZM288.044 315.546L284.804 349.746L286.796 349.934L290.036 315.734L288.044 315.546ZM286.468 349.096L278.308 341.776L276.972 343.264L285.132 350.584L286.468 349.096ZM277.64 343.52H294.56V341.52H277.64V343.52ZM294.56 343.52C302.805 343.52 309.33 344.632 314.194 346.794L315.006 344.966C309.79 342.648 302.955 341.52 294.56 341.52V343.52ZM314.211 346.801C319.178 348.897 322.711 351.811 324.899 355.509L326.621 354.491C324.169 350.349 320.262 347.183 314.989 344.959L314.211 346.801ZM324.912 355.53C327.203 359.196 328.36 363.409 328.36 368.2H330.36C330.36 363.071 329.117 358.484 326.608 354.47L324.912 355.53ZM328.36 368.2C328.36 372.907 327.205 377.212 324.898 381.133L326.622 382.147C329.115 377.908 330.36 373.253 330.36 368.2H328.36ZM324.898 381.133C322.612 385.02 319.09 388.177 314.273 390.586L315.167 392.374C320.27 389.823 324.108 386.42 326.622 382.147L324.898 381.133ZM314.267 390.589C309.57 392.976 303.538 394.2 296.12 394.2V396.2C303.742 396.2 310.11 394.944 315.173 392.371L314.267 390.589ZM348.212 392.68L347.912 393.634L347.92 393.637L347.929 393.639L348.212 392.68ZM334.052 385.48L333.174 385.002L332.771 385.741L333.431 386.264L334.052 385.48ZM340.652 373.36L341.284 372.585L340.35 371.823L339.774 372.882L340.652 373.36ZM351.692 379.36L351.36 380.303L351.366 380.305L351.692 379.36ZM378.332 378.16L377.745 377.35L377.735 377.358L378.332 378.16ZM381.092 361.84L380.25 362.379L380.257 362.391L380.265 362.402L381.092 361.84ZM374.132 357.28L373.83 358.233L373.837 358.235L374.132 357.28ZM340.292 355.72L339.297 355.626L339.193 356.72H340.292V355.72ZM344.612 310V309H343.702L343.617 309.906L344.612 310ZM393.932 310H394.932V309H393.932V310ZM393.932 323.08V324.08H394.932V323.08H393.932ZM350.372 323.08L349.698 322.341L347.791 324.08H350.372V323.08ZM358.532 315.64L359.528 315.734L359.772 313.156L357.858 314.901L358.532 315.64ZM355.292 349.84L354.624 350.584L356.101 351.909L356.288 349.934L355.292 349.84ZM347.132 342.52V341.52H344.52L346.464 343.264L347.132 342.52ZM384.092 345.88L383.686 346.794L383.695 346.798L383.703 346.801L384.092 345.88ZM395.252 355L394.392 355.509L394.398 355.52L394.404 355.53L395.252 355ZM395.252 381.64L394.39 381.133L395.252 381.64ZM384.212 391.48L383.765 390.586L383.759 390.589L384.212 391.48ZM365.612 394.2C359.788 394.2 354.084 393.374 348.496 391.721L347.929 393.639C353.701 395.346 359.596 396.2 365.612 396.2V394.2ZM348.512 391.726C343.006 389.996 338.4 387.647 334.673 384.696L333.431 386.264C337.384 389.393 342.218 391.844 347.912 393.634L348.512 391.726ZM334.93 385.958L341.53 373.838L339.774 372.882L333.174 385.002L334.93 385.958ZM340.02 374.135C343.163 376.699 346.949 378.751 351.36 380.303L352.024 378.417C347.795 376.929 344.221 374.981 341.284 372.585L340.02 374.135ZM351.366 380.305C355.872 381.862 360.543 382.64 365.372 382.64V380.64C360.762 380.64 356.312 379.898 352.019 378.415L351.366 380.305ZM365.372 382.64C371.02 382.64 375.577 381.455 378.929 378.962L377.735 377.358C374.847 379.505 370.765 380.64 365.372 380.64V382.64ZM378.919 378.97C382.376 376.463 384.132 373.044 384.132 368.8H382.132C382.132 372.396 380.688 375.217 377.745 377.35L378.919 378.97ZM384.132 368.8C384.132 365.979 383.402 363.459 381.919 361.278L380.265 362.402C381.502 364.221 382.132 366.341 382.132 368.8H384.132ZM381.934 361.301C380.478 359.026 377.908 357.402 374.428 356.325L373.837 358.235C377.076 359.238 379.146 360.654 380.25 362.379L381.934 361.301ZM374.434 356.327C371.013 355.242 366.376 354.72 360.572 354.72V356.72C366.289 356.72 370.692 357.238 373.83 358.233L374.434 356.327ZM360.572 354.72H340.292V356.72H360.572V354.72ZM341.288 355.814L345.608 310.094L343.617 309.906L339.297 355.626L341.288 355.814ZM344.612 311H393.932V309H344.612V311ZM392.932 310V323.08H394.932V310H392.932ZM393.932 322.08H350.372V324.08H393.932V322.08ZM351.046 323.819L359.206 316.379L357.858 314.901L349.698 322.341L351.046 323.819ZM357.537 315.546L354.297 349.746L356.288 349.934L359.528 315.734L357.537 315.546ZM355.96 349.096L347.8 341.776L346.464 343.264L354.624 350.584L355.96 349.096ZM347.132 343.52H364.052V341.52H347.132V343.52ZM364.052 343.52C372.297 343.52 378.822 344.632 383.686 346.794L384.498 344.966C379.282 342.648 372.448 341.52 364.052 341.52V343.52ZM383.703 346.801C388.67 348.897 392.203 351.811 394.392 355.509L396.113 354.491C393.661 350.349 389.754 347.183 384.481 344.959L383.703 346.801ZM394.404 355.53C396.695 359.196 397.852 363.409 397.852 368.2H399.852C399.852 363.071 398.609 358.484 396.1 354.47L394.404 355.53ZM397.852 368.2C397.852 372.907 396.697 377.212 394.39 381.133L396.114 382.147C398.607 377.908 399.852 373.253 399.852 368.2H397.852ZM394.39 381.133C392.104 385.02 388.582 388.177 383.765 390.586L384.659 392.374C389.762 389.823 393.6 386.42 396.114 382.147L394.39 381.133ZM383.759 390.589C379.062 392.976 373.03 394.2 365.612 394.2V396.2C373.234 396.2 379.602 394.944 384.665 392.371L383.759 390.589ZM417.704 392.68L417.405 393.634L417.413 393.637L417.421 393.639L417.704 392.68ZM403.544 385.48L402.666 385.002L402.263 385.741L402.924 386.264L403.544 385.48ZM410.144 373.36L410.777 372.585L409.843 371.823L409.266 372.882L410.144 373.36ZM421.184 379.36L420.852 380.303L420.858 380.305L421.184 379.36ZM447.824 378.16L447.237 377.35L447.228 377.358L447.824 378.16ZM450.584 361.84L449.742 362.379L449.75 362.391L449.757 362.402L450.584 361.84ZM443.624 357.28L443.322 358.233L443.329 358.235L443.624 357.28ZM409.784 355.72L408.789 355.626L408.685 356.72H409.784V355.72ZM414.104 310V309H413.194L413.109 309.906L414.104 310ZM463.424 310H464.424V309H463.424V310ZM463.424 323.08V324.08H464.424V323.08H463.424ZM419.864 323.08L419.191 322.341L417.283 324.08H419.864V323.08ZM428.024 315.64L429.02 315.734L429.264 313.156L427.351 314.901L428.024 315.64ZM424.784 349.84L424.117 350.584L425.593 351.909L425.78 349.934L424.784 349.84ZM416.624 342.52V341.52H414.012L415.957 343.264L416.624 342.52ZM453.584 345.88L453.178 346.794L453.187 346.798L453.196 346.801L453.584 345.88ZM464.744 355L463.884 355.509L463.89 355.52L463.896 355.53L464.744 355ZM464.744 381.64L463.882 381.133L464.744 381.64ZM453.704 391.48L453.257 390.586L453.251 390.589L453.704 391.48ZM435.104 394.2C429.28 394.2 423.576 393.374 417.988 391.721L417.421 393.639C423.193 395.346 429.088 396.2 435.104 396.2V394.2ZM418.004 391.726C412.498 389.996 407.892 387.647 404.165 384.696L402.924 386.264C406.876 389.393 411.711 391.844 417.405 393.634L418.004 391.726ZM404.423 385.958L411.023 373.838L409.266 372.882L402.666 385.002L404.423 385.958ZM409.512 374.135C412.655 376.699 416.441 378.751 420.852 380.303L421.516 378.417C417.287 376.929 413.713 374.981 410.777 372.585L409.512 374.135ZM420.858 380.305C425.364 381.862 430.035 382.64 434.864 382.64V380.64C430.254 380.64 425.804 379.898 421.511 378.415L420.858 380.305ZM434.864 382.64C440.512 382.64 445.07 381.455 448.421 378.962L447.228 377.358C444.339 379.505 440.257 380.64 434.864 380.64V382.64ZM448.411 378.97C451.868 376.463 453.624 373.044 453.624 368.8H451.624C451.624 372.396 450.181 375.217 447.237 377.35L448.411 378.97ZM453.624 368.8C453.624 365.979 452.894 363.459 451.411 361.278L449.757 362.402C450.994 364.221 451.624 366.341 451.624 368.8H453.624ZM451.427 361.301C449.97 359.026 447.4 357.402 443.92 356.325L443.329 358.235C446.568 359.238 448.638 360.654 449.742 362.379L451.427 361.301ZM443.927 356.327C440.505 355.242 435.868 354.72 430.064 354.72V356.72C435.781 356.72 440.184 357.238 443.322 358.233L443.927 356.327ZM430.064 354.72H409.784V356.72H430.064V354.72ZM410.78 355.814L415.1 310.094L413.109 309.906L408.789 355.626L410.78 355.814ZM414.104 311H463.424V309H414.104V311ZM462.424 310V323.08H464.424V310H462.424ZM463.424 322.08H419.864V324.08H463.424V322.08ZM420.538 323.819L428.698 316.379L427.351 314.901L419.191 322.341L420.538 323.819ZM427.029 315.546L423.789 349.746L425.78 349.934L429.02 315.734L427.029 315.546ZM425.452 349.096L417.292 341.776L415.957 343.264L424.117 350.584L425.452 349.096ZM416.624 343.52H433.544V341.52H416.624V343.52ZM433.544 343.52C441.789 343.52 448.314 344.632 453.178 346.794L453.991 344.966C448.775 342.648 441.94 341.52 433.544 341.52V343.52ZM453.196 346.801C458.163 348.897 461.695 351.811 463.884 355.509L465.605 354.491C463.154 350.349 459.246 347.183 453.973 344.959L453.196 346.801ZM463.896 355.53C466.188 359.196 467.344 363.409 467.344 368.2H469.344C469.344 363.071 468.101 358.484 465.592 354.47L463.896 355.53ZM467.344 368.2C467.344 372.907 466.189 377.212 463.882 381.133L465.606 382.147C468.1 377.908 469.344 373.253 469.344 368.2H467.344ZM463.882 381.133C461.596 385.02 458.075 388.177 453.257 390.586L454.152 392.374C459.254 389.823 463.093 386.42 465.606 382.147L463.882 381.133ZM453.251 390.589C448.554 392.976 442.523 394.2 435.104 394.2V396.2C442.726 396.2 449.095 394.944 454.157 392.371L453.251 390.589ZM515.307 394H514.307V395H515.307V394ZM515.307 329.92V328.92H514.307V329.92H515.307ZM531.027 329.92L531.896 329.427L531.609 328.92H531.027V329.92ZM556.827 375.4V376.4H558.544L557.696 374.907L556.827 375.4ZM550.587 375.4L549.728 374.888L548.826 376.4H550.587V375.4ZM577.707 329.92V328.92H577.139L576.848 329.408L577.707 329.92ZM591.747 329.92L592.747 329.918L592.745 328.92H591.747V329.92ZM591.867 394V395H592.868L592.867 393.998L591.867 394ZM578.307 394H577.307V395H578.307V394ZM578.307 346L578.852 345.162L577.307 344.157V346H578.307ZM580.707 347.56L581.562 348.077L582.063 347.249L581.252 346.722L580.707 347.56ZM556.707 387.28V388.28H557.271L557.562 387.797L556.707 387.28ZM550.227 387.28L549.366 387.789L549.656 388.28H550.227V387.28ZM526.107 346.48L525.864 345.51L524.564 345.835L525.246 346.989L526.107 346.48ZM528.987 345.76H529.987V344.479L528.744 344.79L528.987 345.76ZM528.987 394V395H529.987V394H528.987ZM516.307 394V329.92H514.307V394H516.307ZM515.307 330.92H531.027V328.92H515.307V330.92ZM530.157 330.413L555.957 375.893L557.696 374.907L531.896 329.427L530.157 330.413ZM556.827 374.4H550.587V376.4H556.827V374.4ZM551.445 375.912L578.565 330.432L576.848 329.408L549.728 374.888L551.445 375.912ZM577.707 330.92H591.747V328.92H577.707V330.92ZM590.747 329.922L590.867 394.002L592.867 393.998L592.747 329.918L590.747 329.922ZM591.867 393H578.307V395H591.867V393ZM579.307 394V346H577.307V394H579.307ZM577.762 346.838L580.162 348.398L581.252 346.722L578.852 345.162L577.762 346.838ZM579.851 347.043L555.851 386.763L557.562 387.797L581.562 348.077L579.851 347.043ZM556.707 386.28H550.227V388.28H556.707V386.28ZM551.087 386.771L526.967 345.971L525.246 346.989L549.366 387.789L551.087 386.771ZM526.349 347.45L529.229 346.73L528.744 344.79L525.864 345.51L526.349 347.45ZM527.987 345.76V394H529.987V345.76H527.987ZM528.987 393H515.307V395H528.987V393ZM607.186 354.76H606.186V355.76H607.186V354.76ZM607.186 348.04L606.529 347.286L606.186 347.585V348.04H607.186ZM628.666 329.32L629.323 330.074L629.331 330.067L629.339 330.06L628.666 329.32ZM633.826 323.68L632.973 323.159L632.969 323.166L632.964 323.173L633.826 323.68ZM632.626 315.04L632.002 315.821L632.023 315.838L632.045 315.854L632.626 315.04ZM617.506 314.44L617.129 313.514L617.506 314.44ZM612.346 318.4L611.765 319.214L612.572 319.79L613.155 318.988L612.346 318.4ZM604.786 313L603.981 312.408L603.38 313.224L604.205 313.814L604.786 313ZM613.066 306.52L612.652 305.61L613.066 306.52ZM640.666 308.32L641.289 307.537L640.666 308.32ZM644.146 325.84L643.265 325.368L643.258 325.38L643.252 325.393L644.146 325.84ZM636.706 334.24L637.364 334.993L637.365 334.993L636.706 334.24ZM618.586 350.08L617.75 350.629L618.38 351.588L619.244 350.833L618.586 350.08ZM616.066 346.24V345.24H614.214L615.23 346.789L616.066 346.24ZM647.986 346.24H648.986V345.24H647.986V346.24ZM647.986 354.76V355.76H648.986V354.76H647.986ZM608.186 354.76V348.04H606.186V354.76H608.186ZM607.843 348.794L629.323 330.074L628.009 328.566L606.529 347.286L607.843 348.794ZM629.339 330.06C631.984 327.656 633.805 325.689 634.688 324.187L632.964 323.173C632.248 324.391 630.629 326.184 627.994 328.58L629.339 330.06ZM634.68 324.201C635.626 322.653 636.146 321.114 636.146 319.6H634.146C634.146 320.646 633.787 321.827 632.973 323.159L634.68 324.201ZM636.146 319.6C636.146 317.394 635.113 315.587 633.207 314.226L632.045 315.854C633.499 316.893 634.146 318.126 634.146 319.6H636.146ZM633.251 314.259C631.382 312.764 628.499 312.12 624.826 312.12V314.12C628.353 314.12 630.67 314.756 632.002 315.821L633.251 314.259ZM624.826 312.12C621.998 312.12 619.427 312.578 617.129 313.514L617.884 315.366C619.906 314.542 622.214 314.12 624.826 314.12V312.12ZM617.129 313.514C614.809 314.459 612.935 315.89 611.538 317.812L613.155 318.988C614.318 317.39 615.883 316.181 617.884 315.366L617.129 313.514ZM612.927 317.586L605.367 312.186L604.205 313.814L611.765 319.214L612.927 317.586ZM605.592 313.592C607.477 311.029 610.093 308.97 613.48 307.43L612.652 305.61C609 307.27 606.096 309.531 603.981 312.408L605.592 313.592ZM613.48 307.43C616.841 305.903 620.893 305.12 625.666 305.12V303.12C620.68 303.12 616.332 303.937 612.652 305.61L613.48 307.43ZM625.666 305.12C632.017 305.12 636.764 306.494 640.044 309.103L641.289 307.537C637.529 304.546 632.275 303.12 625.666 303.12V305.12ZM640.044 309.103C643.342 311.726 644.946 314.966 644.946 318.88H646.946C646.946 314.314 645.031 310.514 641.289 307.537L640.044 309.103ZM644.946 318.88C644.946 321.106 644.392 323.264 643.265 325.368L645.028 326.312C646.301 323.936 646.946 321.454 646.946 318.88H644.946ZM643.252 325.393C642.224 327.449 639.87 330.143 636.048 333.487L637.365 334.993C641.222 331.617 643.829 328.711 645.041 326.287L643.252 325.393ZM636.048 333.487L617.928 349.327L619.244 350.833L637.364 334.993L636.048 333.487ZM619.422 349.531L616.902 345.691L615.23 346.789L617.75 350.629L619.422 349.531ZM616.066 347.24H647.986V345.24H616.066V347.24ZM646.986 346.24V354.76H648.986V346.24H646.986ZM647.986 353.76H607.186V355.76H647.986V353.76Z" fill="white"/>
</svg>
